# This file uses meters as units for non-parametric coordinates.

g default
v 22.952972 1.435120 -9.793018
v 22.952972 -1.435089 -9.793018
v -19.133984 -1.435089 13.727276
v -19.133982 -1.435089 -9.793018
v -19.133982 1.435120 -9.793018
v -19.133984 1.435120 13.727276
v -22.235500 1.435120 -13.009800
v -22.952972 0.717621 -13.727272
v -19.133978 0.717621 -13.727272
v -19.133982 1.435120 -13.009800
v -22.952972 -0.717621 -13.727272
v -22.235500 -1.435089 -13.009800
v -19.133982 -1.435089 -13.009800
v -19.133978 -0.717621 -13.727272
v -22.952972 0.717621 13.727276
v -22.235500 1.435120 13.727276
v -22.235500 1.435120 -9.793018
v -22.952972 0.717621 -9.793018
v -22.952972 -0.717621 -9.793018
v -22.235500 -1.435089 -9.793018
v -22.235500 -1.435089 13.727276
v -22.952972 -0.717621 13.727276
v 22.952972 -0.717621 -13.727272
v 22.952972 -1.435089 -13.009800
v 22.952972 1.435120 -13.009800
v 22.952972 0.717621 -13.727272
v -19.133982 0.564728 -9.793018
v -19.133982 -0.640198 -9.793018
v 20.156189 -0.640198 -9.793018
v 20.156189 0.564697 -9.793018
v -19.133984 -0.640198 11.516808
v -19.133984 0.564728 11.516808
v -17.388451 0.564728 -8.348328
v -17.388451 -0.640198 -8.348328
v 20.156189 -0.640198 -8.348328
v 20.156189 0.564697 -8.348328
v -17.388451 -0.640198 11.616867
v -17.388451 0.564728 11.616867
v -16.289639 0.034668 10.499298
v 18.890633 0.034668 10.499298
v -16.289639 0.034668 -7.233756
v 18.890633 0.034668 -7.233756
v -16.289639 -0.154999 10.499298
v 18.890633 -0.154999 10.499298
v -16.289639 -0.154999 -7.233756
v 18.890633 -0.154999 -7.233756
vt 0.060290 0.710707
vt 0.060290 0.708509
vt 0.038460 0.723028
vt 0.040656 0.723129
vt 0.059811 0.956285
vt 0.059811 0.955362
vt 0.040215 0.955132
vt 0.040215 0.956055
vt 0.044519 0.955362
vt 0.044519 0.956285
vt 0.029304 0.731690
vt 0.031502 0.731715
vt 0.010048 0.708509
vt 0.010048 0.710707
vt 0.008827 0.731457
vt 0.008056 0.730898
vt 0.011299 0.730708
vt 0.011290 0.731485
vt 0.008800 0.733832
vt 0.072893 0.723830
vt 0.040692 0.722352
vt 0.008299 0.729574
vt 0.006173 0.731426
vt 0.049515 0.731920
vt 0.011312 0.729608
vt 0.006924 0.733811
vt 0.006259 0.721550
vt 0.040742 0.721254
vt 0.029312 0.730913
vt 0.029325 0.729813
vt 0.028060 0.710707
vt 0.028060 0.708509
vt 0.041322 0.955132
vt 0.010123 0.954025
vt 0.040215 0.957161
vt 0.060917 0.957622
vt 0.044596 0.954025
vt 0.043180 0.956285
vt 0.209735 0.106766
vt 0.956384 0.106766
vt 0.956384 0.487491
vt 0.209735 0.487491
vt 0.956384 0.106766
vt 0.956384 0.487491
vt 0.209735 0.487491
vt 0.209735 0.106766
vt 0.008286 0.730673
vt 0.006957 0.730886
vt 0.029277 0.734065
vt 0.031475 0.734090
vt 0.011263 0.733860
vt 0.006146 0.724011
vt 0.040543 0.725590
vt 0.038347 0.725489
vt 0.011741 0.710041
vt 0.011741 0.709118
vt 0.028060 0.710041
vt 0.028060 0.709118
vt 0.058149 0.710041
vt 0.058149 0.709118
vt 0.044596 0.957622
vt 0.043180 0.955362
vt 0.041322 0.956055
vt 0.040215 0.954025
vt 0.011459 0.956055
vt 0.011459 0.955132
vt 0.060917 0.954025
vt 0.010123 0.957161
vt 0.049488 0.734295
vt 0.006146 0.733802
vt 0.072943 0.722732
vt 0.008023 0.733823
vt 0.072857 0.724607
vt 0.072744 0.727068
vt 0.051952 0.734323
vt 0.008857 0.728803
vt 0.030959 0.731159
vt 0.029859 0.731146
vt 0.029334 0.729036
vt 0.011321 0.728831
vt 0.051979 0.731948
vt 0.040132 0.722554
vt 0.039034 0.722504
vt 0.040778 0.720478
vt 0.072979 0.721956
vn 1.000000 0.000000 0.000000
vn 1.000000 0.000000 0.000000
vn 1.000000 0.000000 0.000000
vn 1.000000 0.000000 0.000000
vn -0.000000 0.000000 1.000000
vn -0.000000 0.000000 1.000000
vn -0.000000 0.000000 1.000000
vn -0.000000 0.000000 1.000000
vn 1.000000 0.000000 0.000000
vn 1.000000 0.000000 0.000000
vn 1.000000 0.000000 0.000000
vn 1.000000 0.000000 0.000000
vn 0.000000 0.000000 1.000000
vn 0.000000 0.000000 1.000000
vn 0.000000 0.000000 1.000000
vn 0.000000 0.000000 1.000000
vn -0.707119 0.707094 0.000000
vn -0.707119 0.707094 0.000000
vn -0.707119 0.707094 0.000000
vn -0.707119 0.707094 0.000000
vn 0.000000 0.707094 -0.707120
vn 0.000000 0.707094 -0.707120
vn 0.000000 0.707094 -0.707120
vn 0.000000 0.707094 -0.707120
vn 0.000000 0.316185 -0.948697
vn 0.000000 0.983774 -0.179413
vn 0.000000 0.983774 -0.179413
vn 0.000000 0.316185 -0.948698
vn -0.707104 -0.707109 0.000000
vn -0.707104 -0.707109 0.000000
vn -0.707104 -0.707109 0.000000
vn -0.707104 -0.707109 0.000000
vn 0.000000 -0.707109 -0.707105
vn 0.000000 -0.707109 -0.707105
vn 0.000000 -0.707109 -0.707105
vn 0.000000 -0.707109 -0.707105
vn 0.000000 -0.983775 -0.179405
vn 0.000000 -0.316189 -0.948696
vn 0.000000 -0.316189 -0.948696
vn 0.000000 -0.983775 -0.179406
vn -0.707121 0.707093 0.000000
vn -0.707121 0.707093 0.000000
vn -0.707121 0.707093 0.000000
vn -0.707121 0.707093 0.000000
vn -0.707106 -0.707108 0.000000
vn -0.707106 -0.707108 0.000000
vn -0.707106 -0.707108 0.000000
vn -0.707106 -0.707108 0.000000
vn 0.000000 1.000000 0.000000
vn 0.000000 1.000000 0.000000
vn 0.000000 -1.000000 0.000000
vn 0.000000 -1.000000 0.000000
vn -1.000000 0.000000 0.000000
vn -1.000000 0.000000 0.000000
vn -1.000000 0.000000 0.000000
vn -1.000000 0.000000 0.000000
vn -1.000000 0.000000 0.000000
vn -1.000000 0.000000 0.000000
vn -1.000000 0.000000 0.000000
vn -1.000000 0.000000 0.000000
vn 0.000000 -1.000000 -0.000000
vn 0.000000 -1.000000 -0.000000
vn 0.000000 -1.000000 -0.000000
vn 0.000000 -1.000000 -0.000000
vn 0.000000 -1.000000 0.000000
vn 0.000000 -1.000000 0.000000
vn 0.000000 -1.000000 0.000000
vn 0.000000 -1.000000 0.000000
vn 0.000000 0.000000 -1.000000
vn 0.000000 0.000000 -1.000000
vn 0.000000 0.000000 -1.000000
vn 0.000000 0.000000 -1.000000
vn 0.000000 1.000000 0.000000
vn 0.000000 1.000000 0.000000
vn 0.000000 1.000000 0.000000
vn 0.000000 1.000000 0.000000
vn 0.000000 1.000000 0.000000
vn 0.000000 1.000000 0.000000
vn 0.000000 1.000000 0.000000
vn 0.000000 1.000000 0.000000
vn 0.000001 0.000000 1.000000
vn 0.000001 0.000000 1.000000
vn 0.000001 0.000000 1.000000
vn 0.000001 0.000000 1.000000
vn 1.000000 0.000000 0.000000
vn 1.000000 0.000000 0.000000
vn 1.000000 0.000000 0.000000
vn 1.000000 0.000000 0.000000
vn 0.000000 0.000000 1.000000
vn 0.000000 0.000000 1.000000
vn 0.000000 0.000000 1.000000
vn 0.000000 0.000000 1.000000
vn 0.000000 0.000000 1.000000
vn 0.000000 0.000000 1.000000
vn 0.000000 0.000000 1.000000
vn 0.000000 0.000000 1.000000
vn 0.000000 0.000000 1.000000
vn 0.000000 0.000000 1.000000
vn 0.000000 0.000000 1.000000
vn 0.000000 0.000000 1.000000
vn 1.000000 -0.000001 0.000000
vn 1.000000 -0.000001 0.000000
vn 1.000000 -0.000001 0.000000
vn 1.000000 -0.000001 0.000000
vn 1.000000 0.000000 0.000000
vn 1.000000 0.000000 0.000000
vn 1.000000 0.000000 0.000000
vn 1.000000 0.000000 0.000000
vn 1.000000 0.000000 0.000000
vn 1.000000 0.000000 0.000000
vn 1.000000 0.000000 0.000000
vn 1.000000 0.000000 0.000000
vn 0.000000 -1.000000 0.000000
vn 0.000000 -1.000000 0.000000
vn 0.000000 -1.000000 0.000000
vn 0.000000 -1.000000 0.000000
vn 1.000000 0.000000 0.000000
vn 1.000000 0.000000 0.000000
vn 1.000000 0.000000 0.000000
vn 1.000000 0.000000 0.000000
vn 0.000001 1.000000 -0.000001
vn 0.000001 1.000000 -0.000001
vn 0.000001 1.000000 -0.000001
vn 0.000001 1.000000 -0.000001
vn 0.000000 -1.000000 -0.000000
vn 0.000000 -1.000000 -0.000000
vn 0.000000 -1.000000 -0.000000
vn 0.000000 -1.000000 -0.000000
vn 0.000000 1.000000 0.000000
vn 0.000000 1.000000 0.000000
vn 0.000000 1.000000 0.000000
vn 0.000000 1.000000 0.000000
vn -0.057229 0.000000 0.998361
vn -0.057229 0.000000 0.998361
vn -0.057229 0.000000 0.998361
vn -0.057229 0.000000 0.998361
vn 0.000000 1.000000 0.000000
vn 0.000000 1.000000 0.000000
vn 0.000000 1.000000 0.000000
vn 0.000000 1.000000 0.000000
vn 0.000000 -1.000000 0.000000
vn 0.000000 -1.000000 0.000000
vn 0.000000 -1.000000 0.000000
vn 0.000000 -1.000000 0.000000
s off
g Tablet
f 1/53/1 2/54/2 24/3/3 25/4/4
f 33/65/5 34/66/6 35/7/7 36/8/8
f 37/9/9 34/6/10 33/5/11 38/10/12
f 16/11/13 21/12/14 3/50/15 6/49/16
f 7/15/17 8/47/18 18/17/19 17/18/20
f 8/16/21 7/15/22 10/19/23 9/72/24
s 1
f 9/20/25 10/73/26 25/4/27 26/21/28
s off
f 11/22/29 12/76/30 20/80/31 19/25/32
f 12/23/33 11/48/34 14/26/35 13/70/36
s 1
f 13/85/37 14/71/38 23/28/39 24/84/40
s off
f 15/29/41 16/11/42 17/18/43 18/17/44
f 19/25/45 20/80/46 21/79/47 22/30/48
s 1
f 10/73/26 5/74/49 1/53/50 25/4/27
f 14/71/38 9/20/25 26/21/28 23/28/39
f 4/52/51 13/27/37 24/3/40 2/54/52
s off
f 11/22/53 19/25/54 18/17/55 8/47/56
f 18/17/57 19/25/58 22/30/59 15/29/60
f 20/24/61 4/69/62 3/50/63 21/12/64
f 12/81/65 13/75/66 4/69/67 20/24/68
f 8/16/69 9/72/70 14/26/71 11/48/72
f 17/18/73 5/51/74 10/19/75 7/15/76
f 17/18/77 16/11/78 6/49/79 5/51/80
f 22/77/81 21/12/82 16/11/83 15/78/84
f 25/4/85 24/3/86 23/83/87 26/82/88
f 4/32/89 2/2/90 29/60/91 28/58/92
f 2/2/93 1/1/94 30/59/95 29/60/96
f 1/1/97 5/31/98 27/57/99 30/59/100
f 3/13/101 4/32/102 28/58/103 31/56/104
f 5/31/105 6/14/106 32/55/107 27/57/108
f 6/14/109 3/13/110 31/56/111 32/55/112
f 28/34/113 29/64/114 35/7/115 34/66/116
f 29/33/117 30/63/118 36/8/119 35/7/120
f 30/35/121 27/68/122 33/65/123 36/8/124
f 31/37/125 28/67/126 34/6/127 37/9/128
f 27/36/129 32/61/130 38/10/131 33/5/132
f 32/38/133 31/62/134 37/9/135 38/10/136
f 39/39/137 40/40/138 42/41/139 41/42/140
f 43/43/141 45/44/142 46/45/143 44/46/144
