# This file uses meters as units for non-parametric coordinates.

g default
v 391.630890 39.487045 136.692825
v 405.676514 39.487030 132.537094
v 406.349701 25.032942 134.812210
v 392.304047 25.032961 138.967957
v 389.611938 38.318939 129.869125
v 403.657562 38.318924 125.713394
v 390.820679 30.891882 82.327110
v 376.775085 30.891901 86.482834
v 404.330750 23.864836 127.988525
v 391.493896 16.437796 84.602242
v 390.285095 23.864855 132.144272
v 377.448212 16.437811 88.757980
v 386.231110 33.628426 112.296524
v 396.932617 33.628410 109.130234
v 393.040527 31.376562 95.975693
v 382.339020 31.376581 99.141975
v 397.445587 22.615675 110.863663
v 393.553497 20.363829 97.709114
v 386.743988 22.615713 114.029968
v 382.851898 20.363867 100.875427
v 361.167511 46.218765 88.477005
v 405.000549 46.218704 75.507950
v 371.202118 43.490891 103.211868
v 404.598907 43.490814 93.330643
v 407.101410 1.110950 82.608086
v 406.199860 9.122732 98.740234
v 363.268311 1.111027 95.577156
v 372.802704 9.122847 108.621552
v 388.282410 0.967154 144.277542
v 369.164795 19.740969 146.720169
v 371.184235 20.909346 153.545441
v 390.301849 2.135534 151.102814
v 429.981842 19.740969 128.725983
v 412.612885 0.967134 137.078781
v 432.001251 20.909346 135.551270
v 414.632324 2.135515 143.904068
v 370.018127 45.947418 149.604355
v 387.387177 64.721222 141.251526
v 367.998718 44.779037 142.779068
v 385.367767 63.552841 134.426239
v 411.717499 64.721237 134.052811
v 430.835175 45.947418 131.610153
v 409.698090 63.552856 127.227524
v 428.815765 44.779037 124.784882
v 370.601196 33.428383 151.574905
v 368.581757 32.260002 144.749619
v 391.967468 32.260002 137.830383
v 431.418213 33.428383 133.580719
v 429.398804 32.260002 126.755432
v 406.013123 32.259941 133.674667
v 389.948517 31.091898 131.006699
v 386.487549 28.122072 113.163239
v 382.595459 25.870222 100.008698
v 372.002411 26.306833 105.916718
v 362.217896 23.664850 92.027084
v 377.111633 23.664858 87.620407
v 391.157288 23.664896 83.464661
v 406.050964 23.664915 79.058006
v 405.399384 26.306841 96.035431
v 393.297028 25.870119 96.842415
v 397.189117 28.121969 109.996964
v 403.994171 31.091791 126.850983
v 384.471039 16.437803 86.680115
v 385.184814 1.110989 89.092636
v 389.501160 9.122789 103.680939
v 388.202698 20.363848 99.292267
v 392.094788 22.615694 112.446823
v 397.307953 23.864843 130.066391
v 399.326904 25.032949 136.890076
v 400.447693 0.967144 140.678162
v 402.467102 2.135525 147.503433
v 401.009705 33.428383 142.577805
v 399.552338 64.721222 137.652161
v 397.532928 63.552841 130.826889
v 398.653717 39.487038 134.614960
v 396.634766 38.318932 127.791260
v 391.581848 33.628418 110.713379
v 387.689789 31.376574 97.558830
v 387.900574 43.490852 98.271240
v 383.084106 46.218735 81.992447
v 383.797913 30.891890 84.404968
v 384.134491 23.664877 85.542534
v 378.723572 10.354080 145.498856
v 376.683228 54.165939 138.602661
v 419.256958 54.165924 126.006210
v 421.297394 10.354090 132.902374
v 383.057343 47.906433 137.788254
v 384.514709 16.613596 142.713882
v 414.923279 16.613577 133.716782
v 413.465881 47.906418 128.791168
v 423.316833 11.522469 139.727646
v 380.742981 11.522478 152.324142
v 378.702698 55.334358 145.427933
v 421.276367 55.334305 132.831482
vt 0.044532 0.968472
vt 0.025872 0.969810
vt 0.035070 0.952187
vt 0.041191 0.952120
vt 0.026928 0.976134
vt 0.035003 0.946066
vt 0.024406 0.976600
vt 0.041124 0.945999
vt 0.031933 0.975323
vt 0.031150 0.968869
vt 0.036006 0.970927
vt 0.040670 0.970876
vt 0.033844 0.968536
vt 0.034430 0.975017
vt 0.036942 0.974870
vt 0.036553 0.968380
vt 0.028652 0.958750
vt 0.047754 0.958539
vt 0.046284 0.966514
vt 0.031005 0.965910
vt 0.028242 0.987554
vt 0.030798 0.980464
vt 0.052365 0.983773
vt 0.045342 0.981039
vt 0.031063 0.698855
vt 0.029402 0.697194
vt 0.035194 0.744755
vt 0.035194 0.698855
vt 0.031000 0.721877
vt 0.031063 0.719508
vt 0.035194 0.719508
vt 0.035194 0.721877
vt 0.045520 0.709181
vt 0.046633 0.733316
vt 0.046633 0.728740
vt 0.045520 0.713313
vt 0.024868 0.709181
vt 0.023755 0.733316
vt 0.022519 0.705050
vt 0.039252 0.968274
vt 0.024868 0.705050
vt 0.032552 0.733316
vt 0.032552 0.735958
vt 0.035194 0.709181
vt 0.024868 0.713313
vt 0.035194 0.735958
vt 0.035194 0.730674
vt 0.032552 0.730674
vt 0.037836 0.733316
vt 0.037836 0.730674
vt 0.039325 0.696506
vt 0.047181 0.703389
vt 0.045520 0.705050
vt 0.039325 0.698855
vt 0.023207 0.714974
vt 0.039325 0.719508
vt 0.040986 0.721169
vt 0.037836 0.735958
vt 0.046214 0.960101
vt 0.023318 0.970392
vt 0.039460 0.974760
vt 0.040902 0.971121
vt 0.044576 0.974775
vt 0.045559 0.965749
vt 0.047754 0.958539
vt 0.041916 0.968359
vt 0.042012 0.974770
vt 0.046426 0.956738
vt 0.040751 0.973448
vt 0.045813 0.973776
vt 0.047648 0.948987
vt 0.041157 0.949059
vt 0.035036 0.949127
vt 0.023716 0.973084
vt 0.030901 0.973187
vt 0.022645 0.958348
vt 0.023438 0.961627
vt 0.020161 0.962458
vt 0.038063 0.946033
vt 0.037786 0.987931
vt 0.038070 0.980751
vt 0.029856 0.960373
vt 0.029368 0.957010
vt 0.032764 0.956601
vt 0.019349 0.959188
vt 0.025988 0.957576
vt 0.026621 0.960805
vt 0.029437 0.975667
vt 0.028476 0.969249
vt 0.023852 0.963534
vt 0.053602 0.964710
vt 0.033061 0.959884
vt 0.036302 0.959790
vt 0.036179 0.956393
vt 0.038338 0.970901
vt 0.038282 0.965829
vt 0.038203 0.958644
vt 0.038131 0.952154
vt 0.038097 0.949093
vt 0.039606 0.956344
vt 0.039562 0.959634
vt 0.038270 0.975683
vt 0.035940 0.975591
vt 0.035973 0.973259
vt 0.043032 0.956503
vt 0.040600 0.975775
vt 0.042841 0.959871
vt 0.037991 0.939542
vt 0.023581 0.982635
vt 0.028440 0.939648
vt 0.028546 0.949199
vt 0.052984 0.974242
vt 0.047330 0.988308
vt 0.047542 0.939436
vt 0.026304 0.700292
vt 0.026304 0.718071
vt 0.044084 0.718071
vt 0.044084 0.700292
vt 0.029475 0.727597
vt 0.029475 0.739036
vt 0.040914 0.739036
vt 0.040913 0.727597
vt 0.042423 0.701953
vt 0.027965 0.701953
vt 0.027965 0.716410
vt 0.042423 0.716410
vt 0.043202 0.741324
vt 0.046633 0.737892
vt 0.043202 0.725308
vt 0.039388 0.721877
vt 0.027186 0.725308
vt 0.023755 0.728740
vt 0.027186 0.741324
vt 0.030618 0.744755
vt 0.035194 0.696506
vt 0.039770 0.744755
vt 0.047869 0.709181
vt 0.022519 0.709181
vt 0.023755 0.737892
vt 0.047869 0.713313
vt 0.047181 0.714974
vt 0.029402 0.721169
vt 0.022519 0.713313
vt 0.047869 0.705050
vt 0.040986 0.697194
vt 0.031063 0.696506
vt 0.023207 0.703389
vn 0.045956 -0.986794 0.155326
vn 0.045956 -0.986794 0.155326
vn 0.045956 -0.986794 0.155326
vn 0.045956 -0.986794 0.155326
vn -0.045957 0.986794 -0.155326
vn -0.045957 0.986794 -0.155326
vn -0.045958 0.986794 -0.155326
vn -0.045958 0.986794 -0.155326
vn 0.958909 -0.000000 -0.283714
vn 0.958909 -0.000000 -0.283714
vn 0.958909 0.000002 -0.283714
vn 0.958909 0.000002 -0.283714
vn -0.958908 -0.000000 0.283717
vn -0.958908 -0.000000 0.283717
vn -0.958908 0.000000 0.283718
vn -0.958908 0.000000 0.283718
vn -0.062299 0.975593 -0.210563
vn -0.061935 0.975881 -0.209333
vn -0.045955 0.986794 -0.155326
vn -0.045956 0.986794 -0.155327
vn 0.958908 0.000009 -0.283717
vn 0.941276 -0.009281 -0.337511
vn 0.940836 -0.009491 -0.338730
vn 0.958908 0.000011 -0.283717
vn 0.045953 -0.986794 0.155327
vn 0.029824 -0.994459 0.100809
vn 0.029453 -0.994596 0.099555
vn 0.045953 -0.986794 0.155327
vn -0.973680 -0.009501 0.227723
vn -0.973385 -0.009289 0.228987
vn -0.958908 -0.000001 0.283716
vn -0.958908 -0.000006 0.283716
vn -0.045955 0.986794 -0.155325
vn -0.045955 0.986794 -0.155325
vn -0.045955 0.986794 -0.155325
vn -0.045955 0.986794 -0.155325
vn 0.958908 -0.000001 -0.283716
vn 0.958908 -0.000001 -0.283716
vn 0.958908 -0.000002 -0.283716
vn 0.958908 -0.000002 -0.283716
vn 0.045956 -0.986794 0.155326
vn 0.045956 -0.986794 0.155326
vn 0.045955 -0.986794 0.155325
vn 0.045955 -0.986794 0.155325
vn -0.958908 0.000009 0.283716
vn -0.958908 0.000003 0.283716
vn -0.958908 0.000003 0.283716
vn -0.958908 0.000009 0.283716
vn -0.072256 0.967025 -0.244218
vn -0.072257 0.967024 -0.244219
vn 0.045014 0.987335 0.152132
vn 0.045014 0.987335 0.152132
vn 0.045014 0.987335 0.152131
vn 0.045014 0.987335 0.152131
vn 0.928094 -0.015329 -0.372030
vn 0.928095 -0.015326 -0.372029
vn 0.998224 0.051268 0.030329
vn 0.998224 0.051268 0.030333
vn 0.998224 0.051268 0.030333
vn 0.998224 0.051268 0.030329
vn 0.019241 -0.997697 0.065039
vn 0.019241 -0.997697 0.065039
vn 0.132199 -0.884805 0.446816
vn 0.132198 -0.884805 0.446815
vn 0.132198 -0.884805 0.446815
vn 0.132199 -0.884805 0.446816
vn -0.981108 -0.015332 0.192851
vn -0.981108 -0.015335 0.192851
vn -0.821010 0.051264 0.568607
vn -0.821010 0.051264 0.568607
vn -0.821011 0.051264 0.568607
vn -0.821011 0.051264 0.568607
vn -0.279969 -0.161983 -0.946245
vn -0.279969 -0.161983 -0.946245
vn -0.279969 -0.161983 -0.946244
vn -0.279969 -0.161983 -0.946245
vn 0.283184 -0.061212 0.957110
vn 0.283184 -0.061212 0.957110
vn 0.283184 -0.061212 0.957110
vn 0.283184 -0.061212 0.957110
vn -0.279969 -0.161983 -0.946245
vn -0.279970 -0.161982 -0.946245
vn -0.279970 -0.161982 -0.946245
vn -0.279969 -0.161983 -0.946245
vn 0.060022 0.157935 0.985624
vn 0.060022 0.157935 0.985624
vn 0.060022 0.157936 0.985624
vn 0.060022 0.157936 0.985624
vn -0.279970 -0.161983 -0.946245
vn -0.279969 -0.161983 -0.946245
vn -0.279969 -0.161983 -0.946245
vn -0.279969 -0.161983 -0.946245
vn 0.262772 0.377088 0.888119
vn 0.262772 0.377088 0.888119
vn 0.262771 0.377088 0.888119
vn 0.262772 0.377088 0.888119
vn -0.279970 -0.161982 -0.946245
vn -0.279970 -0.161982 -0.946245
vn -0.279969 -0.161982 -0.946245
vn -0.279969 -0.161982 -0.946245
vn 0.485935 0.157936 0.859607
vn 0.485935 0.157936 0.859607
vn 0.485935 0.157936 0.859607
vn 0.485935 0.157936 0.859607
vn 0.279970 0.161981 0.946245
vn 0.279969 0.161982 0.946245
vn 0.279970 0.161982 0.946245
vn 0.279970 0.161982 0.946245
vn -0.279969 -0.161982 -0.946245
vn -0.279969 -0.161982 -0.946245
vn -0.279970 -0.161981 -0.946245
vn -0.279969 -0.161982 -0.946245
vn -0.645554 -0.697768 0.310451
vn -0.645554 -0.697768 0.310451
vn -0.645554 -0.697768 0.310451
vn -0.645554 -0.697768 0.310451
vn 0.710548 -0.697768 -0.090787
vn 0.710548 -0.697767 -0.090787
vn 0.710548 -0.697767 -0.090787
vn 0.710548 -0.697768 -0.090787
vn -0.710548 0.697767 0.090785
vn -0.710547 0.697769 0.090785
vn -0.710546 0.697769 0.090785
vn -0.710548 0.697767 0.090785
vn 0.645553 0.697770 -0.310449
vn 0.645553 0.697770 -0.310449
vn 0.645553 0.697770 -0.310449
vn 0.645553 0.697770 -0.310449
vn -0.958908 -0.000001 0.283716
vn -0.958908 -0.000001 0.283716
vn -0.279969 -0.161982 -0.946245
vn -0.279970 -0.161982 -0.946245
vn -0.279968 -0.161982 -0.946245
vn -0.279969 -0.161982 -0.946245
vn 0.279970 0.161981 0.946245
vn 0.279970 0.161982 0.946245
vn 0.279969 0.161982 0.946245
vn 0.958909 -0.000003 -0.283714
vn 0.958909 -0.000003 -0.283714
vn -0.279970 -0.161982 -0.946245
vn -0.279970 -0.161982 -0.946245
vn -0.279971 -0.161981 -0.946245
vn -0.279972 -0.161979 -0.946244
vn -0.958908 -0.000004 0.283716
vn -0.958908 -0.000004 0.283716
vn -0.981108 -0.015339 0.192851
vn -0.973680 -0.009501 0.227723
vn -0.958908 0.000005 0.283716
vn 0.485934 0.157937 0.859607
vn 0.485934 0.157937 0.859607
vn -0.821010 0.051265 0.568608
vn -0.821010 0.051265 0.568608
vn -0.279970 -0.161982 -0.946245
vn -0.279970 -0.161982 -0.946245
vn -0.279968 -0.161981 -0.946245
vn -0.279969 -0.161982 -0.946245
vn -0.279969 -0.161983 -0.946245
vn -0.279969 -0.161983 -0.946245
vn -0.279969 -0.161981 -0.946245
vn -0.279968 -0.161979 -0.946246
vn -0.279970 -0.161982 -0.946245
vn -0.279970 -0.161982 -0.946245
vn 0.998224 0.051268 0.030338
vn 0.998224 0.051268 0.030338
vn 0.060023 0.157935 0.985624
vn 0.060023 0.157935 0.985624
vn 0.940835 -0.009496 -0.338732
vn 0.958908 0.000006 -0.283718
vn 0.928094 -0.015331 -0.372031
vn 0.958908 0.000000 -0.283717
vn 0.958908 0.000000 -0.283717
vn -0.279969 -0.161982 -0.946245
vn -0.279969 -0.161982 -0.946245
vn 0.132198 -0.884806 0.446813
vn 0.132198 -0.884806 0.446813
vn 0.262772 0.377088 0.888119
vn 0.262772 0.377088 0.888119
vn 0.029453 -0.994596 0.099555
vn 0.045953 -0.986794 0.155326
vn 0.019241 -0.997697 0.065040
vn 0.045956 -0.986794 0.155326
vn 0.045956 -0.986794 0.155326
vn 0.045956 -0.986794 0.155325
vn 0.045956 -0.986794 0.155325
vn 0.279969 0.161982 0.946245
vn 0.279969 0.161982 0.946245
vn 0.279969 0.161982 0.946245
vn 0.279970 0.161982 0.946245
vn 0.279969 0.161982 0.946245
vn -0.045958 0.986794 -0.155326
vn -0.045958 0.986794 -0.155326
vn -0.279969 -0.161982 -0.946245
vn -0.279969 -0.161982 -0.946245
vn -0.279969 -0.161983 -0.946245
vn -0.279970 -0.161982 -0.946245
vn -0.045956 0.986794 -0.155325
vn -0.045956 0.986794 -0.155325
vn -0.072257 0.967024 -0.244219
vn -0.062298 0.975593 -0.210563
vn -0.045955 0.986794 -0.155325
vn 0.283183 -0.061213 0.957110
vn 0.283183 -0.061213 0.957110
vn 0.045014 0.987335 0.152133
vn 0.045014 0.987335 0.152133
vn -0.279969 -0.161982 -0.946245
vn -0.279969 -0.161982 -0.946245
vn -0.279971 -0.161982 -0.946244
vn -0.279970 -0.161983 -0.946244
vn -0.279969 -0.161983 -0.946245
vn -0.279971 -0.161981 -0.946245
vn -0.279968 -0.161983 -0.946245
vn -0.279969 -0.161983 -0.946245
vn -0.279969 -0.161982 -0.946245
vn -0.279970 -0.161981 -0.946245
vn -0.279970 -0.161982 -0.946245
vn -0.279970 -0.161981 -0.946245
vn -0.279969 -0.161982 -0.946245
vn -0.279969 -0.161983 -0.946245
vn -0.279969 -0.161983 -0.946245
vn -0.279969 -0.161982 -0.946245
vn -0.279969 -0.161982 -0.946245
vn 0.710548 -0.697767 -0.090786
vn 0.710548 -0.697767 -0.090786
vn 0.279969 0.161982 0.946245
vn 0.279970 0.161982 0.946245
vn 0.279970 0.161981 0.946245
vn -0.645555 -0.697767 0.310451
vn -0.645555 -0.697767 0.310450
vn 0.279969 0.161982 0.946245
vn -0.710545 0.697771 0.090785
vn -0.710545 0.697771 0.090785
vn 0.279970 0.161982 0.946244
vn 0.645553 0.697770 -0.310449
vn 0.645553 0.697770 -0.310449
s 1
g Chair
f 32/25/1 29/146/2 70/135/3 71/28/4
s 2
f 40/29/5 38/30/6 73/31/7 74/32/8
s 3
f 48/33/9 49/137/10 44/140/11 42/36/12
s 4
f 45/37/13 46/138/14 30/39/15 31/41/16
s 5
f 13/60/17 77/2/18 78/5/19 16/7/20
s 6
f 60/9/21 61/10/22 17/13/23 18/14/24
s 7
f 66/15/25 67/16/26 19/40/27 20/61/28
s 8
f 19/40/29 52/66/30 53/67/31 20/61/32
s 9
f 1/85/33 75/76/34 76/77/35 5/78/36
s 10
f 62/82/37 50/83/38 3/84/39 9/92/40
s 11
f 68/93/41 69/94/42 4/100/43 11/101/44
s 12
f 4/100/45 47/105/46 51/107/47 11/101/48
s 5
f 5/78/49 76/77/50 77/2/18 13/60/17
s 13
f 79/96/51 80/97/52 21/65/53 23/64/54
s 6
f 61/10/22 62/82/55 9/92/56 17/13/23
s 14
f 25/109/57 58/74/58 59/75/59 26/22/60
s 7
f 67/16/26 68/93/61 11/101/62 19/40/27
s 15
f 27/113/63 64/80/64 65/81/65 28/24/66
s 8
f 11/101/67 51/107/68 52/66/30 19/40/29
s 16
f 54/70/69 55/112/70 27/23/71 28/24/72
s 17
f 80/97/73 81/98/74 8/4/75 21/65/76
s 18
f 16/12/77 78/95/78 79/96/79 23/64/80
s 19
f 10/6/81 57/73/82 58/111/83 25/110/84
s 20
f 59/75/85 60/104/86 18/103/87 26/22/88
s 21
f 12/8/89 63/79/90 64/108/91 27/114/92
s 22
f 65/81/93 66/102/94 20/106/95 28/24/96
s 23
f 55/71/97 56/72/98 12/8/99 27/114/100
s 24
f 20/106/101 53/69/102 54/70/103 28/24/104
s 25
f 45/37/105 72/44/106 93/125/107 37/45/108
s 26
f 46/38/109 88/120/110 83/133/111 30/139/112
s 27
f 92/124/113 83/115/114 29/26/115 32/25/116
s 28
f 34/145/117 86/118/118 91/123/119 36/54/120
s 29
f 37/45/121 93/125/122 84/116/123 39/55/124
s 30
f 41/56/125 94/126/126 85/117/127 43/57/128
s 4
f 37/45/129 39/143/130 46/138/14 45/37/13
s 26
f 74/32/131 87/119/132 84/131/133 40/29/134
s 25
f 72/44/106 92/124/135 32/25/136 71/28/137
s 3
f 35/53/138 33/144/139 49/137/10 48/33/9
s 26
f 70/27/140 89/121/141 86/127/142 34/136/143
s 12
f 51/107/47 47/105/46 1/68/144 5/59/145
s 8
f 52/66/30 51/107/68 5/59/146 13/1/147
f 53/67/31 52/66/30 13/1/147 16/63/148
s 24
f 54/70/103 53/69/102 16/62/149 23/19/150
s 16
f 21/91/151 55/112/70 54/70/69 23/19/152
s 23
f 8/4/153 56/72/98 55/71/97 21/18/154
s 33
f 56/72/155 82/99/156 63/79/157 12/8/158
f 81/98/159 82/99/156 56/72/155 8/4/160
s 19
f 58/111/83 57/73/82 7/3/161 22/17/162
s 14
f 59/75/59 58/74/58 22/90/163 24/20/164
s 20
f 15/11/165 60/104/86 59/75/85 24/20/166
s 6
f 14/89/167 61/10/22 60/9/21 15/88/168
f 6/87/169 62/82/55 61/10/22 14/89/167
s 10
f 2/86/170 50/83/38 62/82/37 6/87/171
s 21
f 64/108/91 63/79/90 10/6/172 25/110/173
s 15
f 65/81/65 64/80/64 25/21/174 26/22/175
s 22
f 18/103/176 66/102/94 65/81/93 26/22/177
s 7
f 17/13/178 67/16/26 66/15/25 18/14/179
f 9/92/180 68/93/61 67/16/26 17/13/178
s 11
f 3/84/181 69/94/42 68/93/41 9/92/182
s 1
f 71/28/4 70/135/3 34/51/183 36/54/184
s 25
f 72/44/106 71/28/137 36/54/185 91/123/186
f 73/31/187 72/44/106 94/126/188 41/56/189
s 2
f 74/32/8 73/31/7 41/56/190 43/130/191
s 26
f 49/34/192 90/122/193 85/129/194 44/35/195
s 9
f 76/77/35 75/76/34 2/86/196 6/87/197
s 5
f 77/2/18 76/77/50 6/87/198 14/89/199
f 78/5/19 77/2/18 14/89/199 15/88/200
s 18
f 79/96/79 78/95/78 15/11/201 24/20/202
s 13
f 22/17/203 80/97/52 79/96/51 24/20/204
s 17
f 7/3/205 81/98/74 80/97/73 22/17/206
s 33
f 7/3/207 57/73/208 82/99/156 81/98/159
f 63/79/157 82/99/156 57/73/208 10/6/209
s 26
f 88/120/110 70/27/140 29/134/210 83/133/111
f 87/119/132 46/38/109 39/132/211 84/131/133
f 90/122/193 74/32/131 43/130/212 85/129/194
f 89/121/141 49/34/192 33/128/213 86/127/142
f 1/48/214 87/119/132 74/32/131 75/47/215
f 1/48/214 47/42/216 46/38/109 87/119/132
f 4/43/217 88/120/110 46/38/109 47/42/216
f 4/43/217 69/46/218 70/27/140 88/120/110
f 3/58/219 89/121/141 70/27/140 69/46/218
f 3/58/219 50/49/220 49/34/192 89/121/141
f 2/50/221 90/122/193 49/34/192 50/49/220
f 2/50/221 75/47/215 74/32/131 90/122/193
s 28
f 91/123/119 86/118/118 33/52/222 35/53/223
s 25
f 72/44/106 91/123/186 35/53/224 48/33/225
f 31/41/226 92/124/135 72/44/106 45/37/105
s 27
f 30/147/227 83/115/114 92/124/113 31/41/228
s 25
f 93/125/107 72/44/106 73/31/187 38/30/229
s 29
f 84/116/123 93/125/122 38/30/230 40/142/231
s 25
f 94/126/188 72/44/106 48/33/225 42/36/232
s 30
f 85/117/127 94/126/126 42/36/233 44/141/234
